<?xml version="1.0" encoding="utf-8"?>
<!-- Generator: Adobe Illustrator 19.0.0, SVG Export Plug-In . SVG Version: 6.00 Build 0)  -->
<svg version="1.1" id="Layer_2" xmlns="http://www.w3.org/2000/svg" xmlns:xlink="http://www.w3.org/1999/xlink" x="0px" y="0px"
	 viewBox="-250 304.8 109.5 185.2" style="enable-background:new -250 304.8 109.5 185.2;" xml:space="preserve">
<style type="text/css">
	.st0{opacity:3.000000e-002;}
	.st1{fill:none;}
	.st2{fill:#F14A1C;}
	.st3{opacity:3.000000e-002;fill:none;stroke:#F14A1C;stroke-width:2;stroke-miterlimit:10;enable-background:new    ;}
	.st4{fill:none;stroke:#F14A1C;stroke-width:4;stroke-miterlimit:10;}
	.st5{fill:#F14A1C;stroke:#F14A1C;stroke-miterlimit:10;}
	.st6{opacity:3.000000e-002;fill:none;stroke:#F14A1C;stroke-miterlimit:10;enable-background:new    ;}
	.st7{opacity:3.000000e-002;fill:none;}
	.st8{opacity:3.000000e-002;fill:#F14A1C;enable-background:new    ;}
</style>
<g class="st0">
	<path class="st1" d="M-190.5,450.4c0.6,2.5,1.3,4.9,2,7.3c1.1-0.2,2.1-0.6,3.1-1c-0.9-2.4-1.8-4.7-2.8-7.1c1.2,2.2,2.5,4.4,3.9,6.6
		c1-0.5,1.9-1.1,2.7-1.8c-1.4-2.1-3-4.1-4.5-6.1c1.7,1.8,3.6,3.6,5.4,5.3c0.8-0.7,1.5-1.5,2.1-2.4c-1.9-1.6-3.9-3.2-5.9-4.7
		c2.2,1.3,4.4,2.6,6.6,3.7c0.6-0.9,1.1-1.9,1.4-2.9c-2.3-1.1-4.6-2.1-7-3c2.4,0.7,4.9,1.4,7.4,1.9c0.3-1,0.5-2.1,0.6-3.2
		c-2.5-0.5-5-0.8-7.5-1.1c2.5,0.1,5.1,0,7.6-0.1c0-0.2,0-0.4,0-0.6c0-0.9-0.1-1.8-0.2-2.6c-2.5,0.2-5,0.5-7.5,0.9
		c2.5-0.6,4.9-1.3,7.3-2c-0.2-1.1-0.6-2.1-1-3.1c-2.4,0.9-4.7,1.8-7.1,2.8c2.2-1.2,4.4-2.5,6.5-3.9c-0.5-1-1.1-1.9-1.8-2.7
		c-2.1,1.4-4.1,3-6.1,4.5c1.8-1.7,3.6-3.6,5.3-5.4c-0.7-0.8-1.5-1.5-2.4-2.1c-1.6,1.9-3.2,3.9-4.7,5.9c1.3-2.2,2.6-4.4,3.7-6.6
		c-0.9-0.6-1.9-1.1-2.9-1.4c-1.1,2.3-2.1,4.6-3,7c0.7-2.4,1.4-4.9,1.9-7.4c-1-0.3-2.1-0.5-3.2-0.6c-0.5,2.5-0.8,5-1.1,7.5
		c0.1-2.5,0-5.1-0.1-7.6c-0.2,0-0.4,0-0.6,0c-0.9,0-1.8,0.1-2.6,0.2c0.2,2.5,0.5,5,0.9,7.5c-0.6-2.5-1.3-4.9-2-7.3
		c-1.1,0.2-2.1,0.6-3.1,1c0.9,2.4,1.8,4.7,2.8,7.1c-1.2-2.2-2.5-4.4-3.9-6.6c-1,0.5-1.9,1.1-2.7,1.8c1.4,2.1,3,4.1,4.5,6.1
		c-1.7-1.8-3.6-3.6-5.4-5.3c-0.8,0.7-1.5,1.5-2.1,2.4c1.9,1.6,3.9,3.2,5.9,4.7c-2.2-1.3-4.4-2.6-6.6-3.7c-0.6,0.9-1.1,1.9-1.4,2.9
		c2.3,1.1,4.6,2.1,7,3c-2.4-0.7-4.9-1.4-7.4-1.9c-0.3,1-0.5,2.1-0.6,3.2c2.5,0.5,5,0.8,7.5,1.1c-2.5-0.1-5.1,0-7.6,0.1
		c0,0.2,0,0.4,0,0.6c0,0.9,0.1,1.8,0.2,2.6c2.5-0.2,5-0.5,7.5-0.9c-2.5,0.6-4.9,1.3-7.3,2c0.2,1.1,0.6,2.1,1,3.1
		c2.4-0.9,4.7-1.8,7.1-2.8c-2.2,1.2-4.4,2.5-6.5,3.9c0.5,1,1.1,1.9,1.8,2.7c2.1-1.4,4.1-3,6.1-4.5c-1.8,1.7-3.6,3.6-5.3,5.4
		c0.7,0.8,1.5,1.5,2.4,2.1c1.6-1.9,3.2-3.9,4.7-5.9c-1.3,2.2-2.6,4.4-3.7,6.6c0.9,0.6,1.9,1.1,2.9,1.4c1.1-2.3,2.1-4.6,3-7
		c-0.7,2.4-1.4,4.9-1.9,7.4c1,0.3,2.1,0.5,3.2,0.6c0.5-2.5,0.8-5,1.1-7.5c-0.1,2.5,0,5.1,0.1,7.6c0.2,0,0.4,0,0.6,0
		c0.9,0,1.8-0.1,2.6-0.2C-189.9,455.4-190.2,452.9-190.5,450.4z"/>
	<path class="st2" d="M-192.3,423.3c-9.9,0-17.9,8-17.9,17.9c0,9.9,8,17.9,17.9,17.9s17.9-8,17.9-17.9
		C-174.4,431.4-182.4,423.3-192.3,423.3z M-192.9,458.2c-0.1-2.5-0.1-5.1-0.1-7.6c-0.3,2.5-0.7,5-1.1,7.5c-1.1-0.1-2.2-0.3-3.2-0.6
		c0.6-2.5,1.2-4.9,1.9-7.4c-0.9,2.4-1.9,4.7-3,7c-1-0.4-2-0.9-2.9-1.4c1.2-2.2,2.4-4.5,3.7-6.6c-1.5,2-3.1,4-4.7,5.9
		c-0.9-0.6-1.7-1.4-2.4-2.1c1.7-1.9,3.5-3.7,5.3-5.4c-2,1.6-4,3.1-6.1,4.5c-0.7-0.8-1.3-1.7-1.8-2.7c2.1-1.4,4.3-2.7,6.5-3.9
		c-2.3,1-4.7,1.9-7.1,2.8c-0.4-1-0.8-2-1-3.1c2.4-0.8,4.9-1.4,7.3-2c-2.5,0.4-5,0.7-7.5,0.9c-0.1-0.9-0.2-1.7-0.2-2.6
		c0-0.2,0-0.4,0-0.6c2.5-0.1,5.1-0.1,7.6-0.1c-2.5-0.3-5-0.7-7.5-1.1c0.1-1.1,0.3-2.2,0.6-3.2c2.5,0.6,4.9,1.2,7.4,1.9
		c-2.4-0.9-4.7-1.9-7-3c0.4-1,0.9-2,1.4-2.9c2.2,1.2,4.5,2.4,6.6,3.7c-2-1.5-4-3.1-5.9-4.7c0.6-0.9,1.4-1.7,2.1-2.4
		c1.9,1.7,3.7,3.5,5.4,5.3c-1.6-2-3.1-4-4.5-6.1c0.8-0.7,1.7-1.3,2.7-1.8c1.4,2.1,2.7,4.3,3.9,6.6c-1-2.3-1.9-4.7-2.8-7.1
		c1-0.4,2-0.8,3.1-1c0.8,2.4,1.4,4.9,2,7.3c-0.4-2.5-0.7-5-0.9-7.5c0.9-0.1,1.7-0.2,2.6-0.2c0.2,0,0.4,0,0.6,0
		c0.1,2.5,0.1,5.1,0.1,7.6c0.3-2.5,0.7-5,1.1-7.5c1.1,0.1,2.2,0.3,3.2,0.6c-0.6,2.5-1.2,4.9-1.9,7.4c0.9-2.4,1.9-4.7,3-7
		c1,0.4,2,0.9,2.9,1.4c-1.2,2.2-2.4,4.5-3.7,6.6c1.5-2,3.1-4,4.7-5.9c0.9,0.6,1.7,1.4,2.4,2.1c-1.7,1.9-3.5,3.7-5.3,5.4
		c2-1.6,4-3.1,6.1-4.5c0.7,0.8,1.3,1.7,1.8,2.7c-2.1,1.4-4.3,2.7-6.5,3.9c2.3-1,4.7-1.9,7.1-2.8c0.4,1,0.8,2,1,3.1
		c-2.4,0.8-4.9,1.4-7.3,2c2.5-0.4,5-0.7,7.5-0.9c0.1,0.9,0.2,1.7,0.2,2.6c0,0.2,0,0.4,0,0.6c-2.5,0.1-5.1,0.1-7.6,0.1
		c2.5,0.3,5,0.7,7.5,1.1c-0.1,1.1-0.3,2.2-0.6,3.2c-2.5-0.6-4.9-1.2-7.4-1.9c2.4,0.9,4.7,1.9,7,3c-0.4,1-0.9,2-1.4,2.9
		c-2.2-1.2-4.5-2.4-6.6-3.7c2,1.5,4,3.1,5.9,4.7c-0.6,0.9-1.4,1.7-2.1,2.4c-1.9-1.7-3.7-3.5-5.4-5.3c1.6,2,3.1,4,4.5,6.1
		c-0.8,0.7-1.7,1.3-2.7,1.8c-1.4-2.1-2.7-4.3-3.9-6.6c1,2.3,1.9,4.7,2.8,7.1c-1,0.4-2,0.8-3.1,1c-0.8-2.4-1.4-4.9-2-7.3
		c0.4,2.5,0.7,5,0.9,7.5c-0.9,0.1-1.7,0.2-2.6,0.2C-192.5,458.2-192.7,458.2-192.9,458.2z"/>
</g>
<polygon class="st3" points="-173.2,305.9 -213.9,305.9 -230.2,343.9 -215.1,388.2 -245.2,466.9 -141.9,466.9 -172,388.2 
	-156.9,343.9 "/>
<g class="st0">
	<polyline class="st4" points="-211.3,374.8 -193.6,374.8 -193.6,345.1 -175.8,345.1 	"/>
	<polyline class="st4" points="-178.7,377.7 -178.7,359.9 -208.4,359.9 -208.4,342.2 	"/>
</g>
<g class="st0">
	<circle class="st5" cx="-205" cy="329.2" r="2.1"/>
	<circle class="st5" cx="-193.6" cy="329.2" r="2.1"/>
	<circle class="st5" cx="-182.1" cy="329.2" r="2.1"/>
	<circle class="st5" cx="-193.6" cy="312.7" r="2.1"/>
</g>
<g class="st0">
	<path class="st2" d="M-173.2,306.1c0.2,2.3-0.5,4.6-1.9,6.5c-1.3,1.9-3.2,3.4-5.2,4.6c-4,2.4-8.7,3.4-13.3,3.4s-9.3-1-13.3-3.4
		c-2-1.2-3.8-2.7-5.2-4.6c-1.3-1.9-2.1-4.2-1.9-6.5c0.2,2.2,1.2,4.3,2.6,5.9c1.4,1.6,3.2,2.9,5.1,3.8c3.9,1.9,8.2,2.8,12.5,2.8
		s8.7-0.8,12.5-2.8c1.9-1,3.7-2.2,5.1-3.8C-174.4,310.4-173.4,308.3-173.2,306.1z"/>
</g>
<path class="st6" d="M-187.1,418.6v-30.3c0-1.4-1.9-2.6-4.3-2.6s-4.3,1.1-4.3,2.6v30.3"/>
<path class="st6" d="M-204.3,419.8v-27c0-1.4,1.9-2.6,4.3-2.6c2.4,0,4.3,1.1,4.3,2.6"/>
<path class="st6" d="M-204.3,400.3c0-1.4-2.7-2.7-5.1-2.7s-4.3,1.1-4.3,2.6v42.1c0,11.9,9.6,21.5,21.5,21.5s21.5-9.6,21.5-21.5
	v-27.2c0-2.1,1.5-4.3,3-6c-10.1-3.4-10.8,13.8-10.8,13.8v-26.8c0-1.4-1.9-2.6-4.3-2.6s-4.3,1.1-4.3,2.6"/>
<path class="st7" d="M-193.9,435c-0.4,0-0.6,0.1-0.8,0.4s-0.3,0.6-0.3,1.2c0,0.5,0.1,0.9,0.2,1.3h0.9l0,0h2.5
	c-0.4-1-0.8-1.7-1.2-2.2C-193,435.2-193.5,435-193.9,435z"/>
<path class="st7" d="M-189.2,440.1c0,0.3,0,0.8-0.1,1.2c0.3,0.2,0.5,0.3,0.7,0.3s0.3-0.1,0.4-0.3c0.1-0.2,0.2-0.4,0.2-0.7v-1.9h-1.3
	C-189.2,439.2-189.2,439.7-189.2,440.1z"/>
<path class="st8" d="M-186.6,437.9L-186.6,437.9h-3.9h-0.1h-0.5c-0.2-0.5-0.3-1-0.5-1.4l0.4-0.8l-0.4-0.9l-0.4,0.8
	c-0.1-0.2-0.2-0.4-0.4-0.6c-0.5-0.6-1-0.9-1.6-0.9c-0.4,0-0.7,0.2-1,0.5c-0.3,0.4-0.5,0.9-0.5,1.7c0,0.6,0.1,1.2,0.4,1.7h-0.7h-0.1
	h-2.1l0.3,0.9h0.5v1.6c0,0.8-0.2,1.2-0.6,1.2c-0.2,0-0.5-0.2-0.8-0.5c0.2-0.2,0.3-0.4,0.4-0.6c0.1-0.2,0.1-0.5,0.1-0.8
	c0-0.6-0.1-1-0.3-1.3s-0.4-0.5-0.7-0.5s-0.5,0.1-0.8,0.4l0.3,0.8c0.4-0.4,0.6-0.6,0.9-0.6c0.1,0,0.2,0.1,0.3,0.2
	c0.1,0.1,0.1,0.3,0.1,0.6c0,0.4-0.1,0.7-0.3,0.9c-0.2,0.3-0.5,0.4-0.9,0.5l0.3,0.8c0.1-0.1,0.3-0.1,0.3-0.1c0.1,0,0.2,0,0.3,0.1
	c0.1,0.1,0.2,0.2,0.3,0.4c0.1,0.2,0.1,0.4,0.1,0.6c0,0.4-0.1,0.7-0.2,0.9c-0.1,0.2-0.3,0.3-0.4,0.3c-0.2,0-0.4-0.2-0.6-0.6
	c-0.2-0.4-0.3-0.9-0.3-1.6h-0.1c0,0.8,0.2,1.5,0.4,2.2c0.2,0.6,0.5,0.9,0.8,0.9c0.2,0,0.4-0.2,0.6-0.5c0.2-0.3,0.2-0.7,0.2-1.2
	c0-0.1,0-0.2,0-0.4c0.2,0,0.4,0,0.6-0.2v2.9l0.3,0.9h0.1v-7.3h0.9h0.1h0.6v6.5l0.3,0.8h0.1v-7.3h0.9l0,0h2.1v1.5h-1.2
	c-0.2,0-0.4,0.1-0.5,0.2c-0.1,0.1-0.1,0.3-0.1,0.6c0,0.5,0.2,1.1,0.6,2c-0.3,0.5-0.4,1-0.4,1.5c0,0.4,0.1,0.8,0.2,1.1
	c0.1,0.4,0.3,0.8,0.5,1.2c0.5,0.8,1.1,1.4,1.8,1.9l0.2,0.2v-0.3c-0.4-0.2-0.7-0.5-1-0.8s-0.5-0.6-0.7-0.9c-0.4-0.7-0.6-1.3-0.6-1.9
	c0-0.5,0.1-1,0.4-1.3c0.3-0.4,0.5-0.5,0.8-0.5c0.1,0,0.3,0.1,0.4,0.2c0.1,0.2,0.1,0.4,0.1,0.6s-0.1,0.5-0.2,0.7
	c-0.1,0.3-0.3,0.6-0.5,0.9l0.3,0.7c0.2-0.3,0.3-0.6,0.4-1c0.1-0.3,0.1-0.7,0.1-1c0-0.5-0.1-0.9-0.3-1.4c-0.2-0.4-0.4-0.6-0.7-0.6
	s-0.6,0.2-0.8,0.5c-0.1-0.3-0.2-0.5-0.3-0.7s-0.1-0.4-0.1-0.6c0-0.1,0-0.2,0.1-0.3s0.1-0.1,0.3-0.1h1.6l-0.1-2.4h0.8h0.1h0.9
	c0.1,0.4,0.1,0.7,0.1,1c0,0.5,0,0.9-0.1,1.2c-0.1-0.1-0.3-0.2-0.4-0.2c-0.1,0-0.2,0.1-0.2,0.2c0,0.1-0.1,0.3-0.1,0.5
	c0,0.4,0.1,0.9,0.3,1.5c0.1,0.3,0.3,0.7,0.5,1.2s0.4,1.1,0.7,1.7l0.1-0.2c-0.1-0.3-0.3-0.7-0.5-1.1c-0.2-0.4-0.3-0.9-0.5-1.4
	c0.1-0.3,0.3-0.7,0.4-1.2c0.3,0.2,0.5,0.4,0.7,0.4s0.4-0.2,0.7-0.5v3.4l0.3,0.8h0.1v-7.3h0.8h0.1h0.6v6.4l0.4,0.9h0.1v-7.3h0.9v-1
	L-186.6,437.9L-186.6,437.9z M-193.9,437.9L-193.9,437.9h-1c-0.1-0.4-0.2-0.9-0.2-1.3c0-0.5,0.1-0.9,0.3-1.2
	c0.2-0.3,0.5-0.4,0.8-0.4c0.5,0,0.9,0.2,1.4,0.7c0.4,0.5,0.8,1.2,1.2,2.2L-193.9,437.9L-193.9,437.9z M-188,440.7
	c0,0.3-0.1,0.5-0.2,0.7c-0.1,0.2-0.3,0.3-0.4,0.3c-0.2,0-0.4-0.1-0.7-0.3c0.1-0.5,0.1-0.9,0.1-1.2c0-0.5,0-0.9-0.1-1.3h1.3
	C-188,438.9-188,440.7-188,440.7z"/>
<g class="st0">
	<path class="st2" d="M-188.7,475.8h-1.1c-0.8-1.6-1.6-2.8-2.5-3.7c-0.9-0.9-1.8-1.4-2.6-1.4l0.3,1.3c0.8,0,1.5,0.3,2.3,1
		s1.4,1.6,2,2.8h-2.3h-0.3h-6.8h-0.3h-7.3h-0.4h-6.8h-0.4h-0.8c-0.8-1.6-1.6-2.8-2.5-3.7s-1.8-1.4-2.6-1.4l0.3,1.3
		c0.8,0,1.5,0.3,2.3,1s1.4,1.6,2,2.8h-2.3h-0.3h-5.4h-0.4h-6.8h-0.3h-5h-0.3h-5.3h-0.4h-7.1l0.8,1h0.8v2.7c0,0.5,0.3,1.2,0.9,1.8
		c0.6,0.6,1.1,1,1.6,1c0.2,0,0.4-0.1,0.6-0.2c0.2-0.1,0.5-0.3,0.8-0.5v3.3l1,1v-9.2h1.4h0.4h2c0.1,0.2,0.2,0.5,0.3,0.7
		s0.1,0.4,0.1,0.6s0,0.5-0.1,0.7s-0.2,0.5-0.4,0.7c-0.1-0.1-0.2-0.1-0.3-0.2c-0.1,0-0.3-0.1-0.5-0.1s-0.4,0.1-0.6,0.2
		c-0.2,0.2-0.3,0.4-0.3,0.6s0,0.3,0,0.4c0,0.1,0.1,0.2,0.1,0.3l4.7,5.2l0.3-0.4l-3.4-4.1c0.4-0.3,0.7-0.6,0.9-1.1s0.3-1,0.3-1.5
		c0-1.2-0.1-1.9-0.2-2.1h2.4h0.3h1.9c0.1,0.2,0.2,0.5,0.3,0.7s0.1,0.5,0.1,0.7s0,0.5-0.1,0.7s-0.1,0.5-0.3,0.7
		c-0.5-0.2-0.8-0.3-0.9-0.3c-0.2,0-0.4,0.1-0.5,0.2c-0.1,0.1-0.2,0.3-0.2,0.5c0,0.9,0.3,1.9,1,2.9c0.6,1,1.5,2,2.7,3l0.3-0.5
		c-1.3-1.3-2.1-2.3-2.5-3.1c0.4-0.5,0.7-1.1,0.9-1.5c0.2,0.1,0.5,0.2,0.8,0.3c0.3,0.1,0.7,0.1,1.1,0.1c0.1,0,0.3,0,0.5-0.1
		c0.2-0.1,0.4-0.2,0.6-0.3v-0.8c-0.1,0.1-0.3,0.2-0.4,0.3c-0.1,0.1-0.4,0.1-0.6,0.1c-0.5,0-1-0.1-1.6-0.4c0.1-0.4,0.2-0.8,0.2-1.4
		c0-0.9-0.1-1.5-0.3-1.8h2.2h0.3h0.5v2.7c0,0.5,0.3,1.2,0.9,1.8c0.6,0.7,1.1,1,1.6,1c0.2,0,0.4-0.1,0.6-0.2c0.2-0.1,0.5-0.3,0.8-0.5
		v3.3l1,1v-9.2h1.3h0.4h2c0.1,0.2,0.2,0.5,0.3,0.7s0.1,0.4,0.1,0.6s0,0.5-0.1,0.7s-0.2,0.5-0.4,0.7c-0.1-0.1-0.2-0.1-0.3-0.2
		c-0.1,0-0.3-0.1-0.5-0.1s-0.4,0.1-0.6,0.2c-0.2,0.2-0.3,0.4-0.3,0.6s0,0.3,0,0.4c0,0.1,0.1,0.2,0.1,0.3l4.7,5.2l0.3-0.4l-3.4-4.1
		c0.4-0.3,0.7-0.6,0.9-1.1s0.3-1,0.3-1.5c0-1.2-0.1-1.9-0.2-2.1h2.4h0.3h1.2v8.2l1,1v-9.2h1.3h0.3h0.5v2.7c0,0.5,0.3,1.2,0.9,1.8
		c0.6,0.6,1.1,1,1.6,1c0.2,0,0.4-0.1,0.6-0.2c0.2-0.1,0.5-0.3,0.8-0.5v3.3l1,1v-9.2h1.3h0.4h1.9c0,1.9-0.1,2.9-0.4,2.9
		c-0.1,0-0.2,0-0.2,0h-0.1c-0.1,0-0.2,0-0.3,0s-0.1,0-0.2,0.1c-0.1,0-0.1,0.1-0.1,0.2c0,0.3,0.3,0.8,0.8,1.5c0.5,0.6,0.9,1,1.1,1
		c0.1,0,0.3-0.1,0.4-0.4c0.1-0.2,0.2-0.5,0.2-0.9c0-1.7-0.1-3.1-0.3-4.3h2.2v5.1l-4.7,3.2l0.4,0.9l4.3-3v1.9l1,1v-9.2h1.3h0.3h4.8
		v1.2h-2.9c-0.3,0-0.6,0.1-0.9,0.4c-0.2,0.2-0.4,0.5-0.4,0.9c0,0.4,0.1,0.8,0.3,1.2s0.4,0.8,0.8,1.2c-0.2,0.2-0.3,0.5-0.4,0.7
		c-0.1,0.2-0.2,0.5-0.2,0.7c0,1,0.4,1.9,1.3,2.8c0.9,0.9,1.9,1.6,3.3,2l0.1-0.4c-1.1-0.5-2-1.1-2.7-1.8c-0.7-0.7-1-1.4-1-2.1
		c0-0.6,0.3-1.1,0.8-1.5c0.5-0.4,1.2-0.6,1.9-0.6c0.3,0,0.5,0.1,0.7,0.3s0.3,0.4,0.3,0.7c0,0.3-0.1,0.6-0.4,0.8
		c-0.3,0.3-0.6,0.5-1.1,0.6l1,1.5c0.4-0.2,0.7-0.5,0.9-0.8s0.3-0.6,0.3-1c0-0.7-0.2-1.3-0.7-1.8s-1.1-0.7-1.8-0.7
		c-0.4,0-0.7,0.1-1.1,0.2c-0.3,0.1-0.6,0.3-0.8,0.5c-0.3-0.3-0.5-0.6-0.6-0.9s-0.2-0.5-0.2-0.7s0.1-0.3,0.2-0.4
		c0.1-0.1,0.3-0.2,0.5-0.2h4v-2.3h1h0.3h1.2v8.2l1,1v-9.2h1.8L-188.7,475.8z M-244.2,480.1c-0.3,0.5-0.6,0.8-0.9,1.1
		c-0.3,0.3-0.7,0.4-1,0.4s-0.5-0.1-0.7-0.4c-0.2-0.2-0.3-0.5-0.3-0.9v-3.5h2.9V480.1z M-226.1,480.1c-0.3,0.5-0.6,0.8-0.9,1.1
		c-0.3,0.3-0.7,0.4-1,0.4s-0.5-0.1-0.7-0.4c-0.2-0.2-0.3-0.5-0.3-0.9v-3.5h2.9V480.1z M-209.3,480.1c-0.3,0.5-0.6,0.8-0.9,1.1
		c-0.3,0.3-0.7,0.4-1,0.4s-0.5-0.1-0.7-0.4c-0.2-0.2-0.3-0.5-0.3-0.9v-3.5h2.9V480.1z"/>
</g>
<g class="st0">
	<path class="st2" d="M-144,485l1,1v-9.2h1.6l-0.8-1h-7.9h-0.3h-3.6h-0.3h-7.1h-0.3h-3.6h-0.3h-7h-0.3h-0.7c-0.5-1.5-1-2.8-1.7-3.7
		c-0.6-0.9-1.2-1.4-1.8-1.4c-0.4,0-0.7,0.2-1,0.5c-0.3,0.4-0.4,0.8-0.4,1.3c0,0.3,0,0.6,0.1,0.9s0.2,0.5,0.4,0.8h0.7
		c-0.1-0.1-0.1-0.3-0.1-0.4c0-0.1,0-0.3,0-0.4c0-0.4,0.1-0.7,0.3-1s0.4-0.4,0.6-0.4c0.4,0,0.8,0.4,1.3,1.1s0.9,1.7,1.2,2.8h-2.4
		h-0.5h-8.9l0.8,1h6.5v2h-3.8c0.5,0.5,0.9,1,1.1,1.4c0.3,0.5,0.4,0.9,0.4,1.2c0,0.3-0.1,0.6-0.3,0.8c-0.2,0.2-0.4,0.3-0.6,0.3
		c-0.5,0-1-0.3-1.4-1c-0.5-0.7-0.9-1.5-1.2-2.6l-0.3,0.2c0.4,1.4,0.9,2.4,1.5,3.3c0.6,0.8,1.2,1.2,1.8,1.2c0.4,0,0.8-0.2,1.1-0.6
		c0.3-0.4,0.5-0.9,0.5-1.4c0-0.3-0.1-0.6-0.2-1c-0.2-0.3-0.4-0.6-0.6-0.9h2.1v5.1l1,1v-9.2h1.3h0.3h1.2v8.2l1,1v-9.2h1.3h0.4h4.7
		v2.5c-0.3-0.3-0.5-0.5-0.8-0.6c-0.3-0.1-0.6-0.2-0.9-0.2c-0.7,0-1.4,0.2-1.9,0.6c-0.5,0.4-0.8,0.9-0.8,1.4s0.3,1.1,0.8,1.7
		c0.5,0.6,1,0.9,1.5,0.9c0.3,0,0.6-0.1,0.9-0.3c0.4-0.2,0.7-0.4,1.1-0.8v2.9l1,1v-9.2h1.4h0.3h1.2v8.2l1,1v-9.2h1.3h0.3h4.9v2.5
		h-3.4c-0.3,0-0.5,0.1-0.7,0.3c-0.2,0.2-0.3,0.4-0.3,0.7c0,0.4,0.2,0.9,0.6,1.6c0.4,0.7,0.7,1,0.9,1c0.1,0,0.1,0,0.2-0.1
		c0.1-0.1,0.1-0.1,0.1-0.2c0-0.2,0-0.4,0-0.7c0-0.3,0-0.5,0-0.7c0-0.3,0.1-0.5,0.2-0.7c0.1-0.2,0.3-0.3,0.6-0.3h1.8v4.7l1,1v-9.2
		h1.3h0.3h1.2v8.2l1,1v-9.2h1.3h0.3h1.5v3.7h-0.9c-0.1,0-0.2,0-0.2,0.1c-0.1,0.1-0.1,0.2-0.1,0.3c0,0.4,0.3,0.9,0.8,1.5
		c0.5,0.7,1,1,1.3,1c0.1,0,0.1-0.1,0.2-0.2c0.1-0.1,0.1-0.3,0.1-0.4v-1.3h2.8L-144,485L-144,485z M-167.2,480.7
		c-0.4,0.5-0.9,0.9-1.3,1.2c-0.4,0.3-0.9,0.4-1.3,0.4c-0.3,0-0.5-0.1-0.7-0.4c-0.2-0.2-0.3-0.5-0.3-0.9c0-0.5,0.2-0.9,0.7-1.2
		c0.5-0.3,1-0.5,1.6-0.5c0.2,0,0.4,0.1,0.6,0.2c0.2,0.1,0.4,0.3,0.7,0.5V480.7L-167.2,480.7z M-146.8,480.5v-3.7h2.8v3.7H-146.8z"/>
	<polygon class="st2" points="-143.5,486 -144.4,486.4 -144,487.3 -143.4,487 -141,490 -140.6,489.7 	"/>
</g>
</svg>
